<svg class="neighborhood-svg" xmlns="http://www.w3.org/2000/svg" style="fill:red" width="80" height="81" viewBox="0 0 80 81"><path d="M39.7502 69.4156L30.6647 66.8423C30.3138 66.7409 29.9316 66.8033 29.6275 67.006C28.8008 67.5597 28.0911 68.2849 27.5452 69.1349C19.801 67.0372 13.6634 60.908 11.5733 53.1645C12.4234 52.6187 13.1487 51.9091 13.7024 51.0825C13.9052 50.7784 13.9676 50.404 13.8662 50.0531L11.2926 40.9684C11.199 40.6331 10.965 40.3446 10.6531 40.1886C8.41486 39.0735 5.77108 39.2217 3.56404 40.5863C1.33359 41.9666 0 44.3372 0 46.9261C0 65.5634 15.1608 80.7228 33.7998 80.7228C36.389 80.7228 38.7598 79.3893 40.1324 77.1669C41.4972 74.96 41.6453 72.3009 40.5301 70.0707C40.3741 69.7509 40.0934 69.517 39.7502 69.4156ZM38.0033 75.849C37.0831 77.3306 35.5155 78.2196 33.7998 78.2196C16.5412 78.2196 2.49561 64.1831 2.49561 46.9183C2.49561 45.2027 3.38466 43.6276 4.87422 42.7074C5.69309 42.2005 6.60556 41.9432 7.49461 41.9432C8.02493 41.9432 8.54744 42.0368 9.04656 42.2161L11.2848 50.1311C10.8325 50.6536 10.2476 51.098 9.60026 51.3944C9.06215 51.6439 8.77361 52.2288 8.90619 52.8059C11.0352 62.2181 18.4908 69.6652 27.8961 71.794C28.4732 71.9266 29.0581 71.6381 29.3077 71.1C29.6119 70.4528 30.0486 69.8679 30.5711 69.4156L38.4868 71.6615C38.986 73.0105 38.8144 74.5389 38.0033 75.849Z"></path><path d="M79.6952 73.4861C77.6832 67.6454 72.9104 63.3253 67.1393 61.7657C68.621 60.44 69.5569 58.5217 69.5569 56.3929C69.5569 52.4081 66.3126 49.1719 62.3353 49.1719C58.3501 49.1719 55.1136 52.4159 55.1136 56.3929C55.1136 58.5295 56.0494 60.4478 57.5312 61.7657C51.7601 63.3331 46.9873 67.6454 44.9752 73.4861C44.3981 75.1549 44.6633 76.9484 45.7005 78.3989C46.7377 79.8571 48.4223 80.7227 50.2082 80.7227H74.4779C76.2638 80.7227 77.9484 79.8493 78.9856 78.3989C80.015 76.9406 80.2724 75.1549 79.6952 73.4861ZM57.6092 56.385C57.6092 53.7805 59.7305 51.6594 62.3353 51.6594C64.94 51.6594 67.0613 53.7805 67.0613 56.385C67.0613 58.9896 64.94 61.1107 62.3353 61.1107C59.7305 61.1029 57.6092 58.9896 57.6092 56.385ZM76.9423 76.9406C76.3652 77.7516 75.4606 78.2195 74.4701 78.2195H50.2004C49.2099 78.2195 48.3053 77.7516 47.7282 76.9406C47.1667 76.1608 47.0263 75.1939 47.3383 74.2971C49.5453 67.9028 55.5737 63.606 62.343 63.606C69.1123 63.606 75.1408 67.9028 77.3479 74.2971C77.6442 75.1939 77.5038 76.1608 76.9423 76.9406Z"></path><path d="M31.9203 35.5487H37.0909V42.3174C37.0909 42.8242 37.395 43.2765 37.8629 43.4714C38.323 43.6586 38.8612 43.565 39.2277 43.1985L46.8861 35.5409H76.3264C78.3541 35.5409 79.9996 33.8955 79.9996 31.868V4.39554C79.9996 2.36806 78.3541 0.722656 76.3264 0.722656H31.9203C29.8926 0.722656 28.2471 2.36806 28.2471 4.39554V31.868C28.2471 33.9033 29.8926 35.5487 31.9203 35.5487ZM30.7505 4.40335C30.7505 3.75611 31.273 3.23365 31.9203 3.23365H76.3264C76.9737 3.23365 77.4962 3.75611 77.4962 4.40335V31.8758C77.4962 32.523 76.9737 33.0455 76.3264 33.0455H46.3714C46.036 33.0455 45.7241 33.178 45.4901 33.412L39.6021 39.2995V34.2932C39.6021 33.5991 39.0405 33.0455 38.3542 33.0455H31.9281C31.2808 33.0455 30.7583 32.523 30.7583 31.8758V4.40335H30.7505Z"></path><path d="M37.1687 10.1426H71.0777C71.7718 10.1426 72.3255 9.58111 72.3255 8.89488C72.3255 8.20086 71.764 7.64722 71.0777 7.64722H37.1687C36.4746 7.64722 35.9209 8.20866 35.9209 8.89488C35.9209 9.58891 36.4746 10.1426 37.1687 10.1426Z"></path><path d="M37.1687 16.311H71.0777C71.7718 16.311 72.3255 15.7496 72.3255 15.0633C72.3255 14.3693 71.764 13.8157 71.0777 13.8157H37.1687C36.4746 13.8157 35.9209 14.3771 35.9209 15.0633C35.9209 15.7496 36.4746 16.311 37.1687 16.311Z"></path><path d="M37.1687 22.4715H71.0777C71.7718 22.4715 72.3255 21.91 72.3255 21.2238C72.3255 20.5298 71.764 19.9761 71.0777 19.9761H37.1687C36.4746 19.9761 35.9209 20.5376 35.9209 21.2238C35.9209 21.91 36.4746 22.4715 37.1687 22.4715Z"></path><path d="M37.1687 28.6319H71.0777C71.7718 28.6319 72.3255 28.0704 72.3255 27.3841C72.3255 26.6901 71.764 26.1365 71.0777 26.1365H37.1687C36.4746 26.1365 35.9209 26.6979 35.9209 27.3841C35.9209 28.0704 36.4746 28.6319 37.1687 28.6319Z"></path><path d="M22.7804 51.9246C26.0945 51.9246 28.7927 54.6227 28.7927 57.9368C28.7927 58.6308 29.3541 59.1845 30.0403 59.1845C30.7266 59.1845 31.288 58.623 31.288 57.9368C31.288 53.2424 27.467 49.4214 22.7726 49.4214C22.0786 49.4214 21.5249 49.9828 21.5249 50.6691C21.5327 51.3631 22.0863 51.9246 22.7804 51.9246Z"></path><path d="M22.7805 46.8169C28.9103 46.8169 33.9015 51.8076 33.9015 57.9369C33.9015 58.6309 34.463 59.1846 35.1493 59.1846C35.8434 59.1846 36.3971 58.6231 36.3971 57.9369C36.3971 50.4274 30.2829 44.3137 22.7727 44.3137C22.0786 44.3137 21.5249 44.8752 21.5249 45.5614C21.5327 46.2554 22.0864 46.8169 22.7805 46.8169Z"></path></svg>