<svg xmlns="http://www.w3.org/2000/svg" width="20" height="20" viewBox="0 0 20 20" fill="none"><path d="M10.5 8.49993C10.1022 8.49993 9.72064 8.65797 9.43934 8.93927C9.15804 9.22057 9 9.60211 9 9.99993V12.4999C9 12.6325 8.94732 12.7597 8.85355 12.8535C8.75979 12.9473 8.63261 12.9999 8.5 12.9999C8.36739 12.9999 8.24021 12.9473 8.14645 12.8535C8.05268 12.7597 8 12.6325 8 12.4999V9.99993C8 9.33689 8.26339 8.701 8.73223 8.23216C9.20107 7.76332 9.83696 7.49993 10.5 7.49993H11.293L10.646 6.85293C10.5982 6.80681 10.5602 6.75163 10.5339 6.69063C10.5077 6.62963 10.494 6.56402 10.4934 6.49763C10.4928 6.43124 10.5054 6.3654 10.5306 6.30395C10.5557 6.2425 10.5929 6.18668 10.6398 6.13973C10.6867 6.09279 10.7426 6.05566 10.804 6.03052C10.8655 6.00538 10.9313 5.99273 10.9977 5.99331C11.0641 5.99388 11.1297 6.00768 11.1907 6.03388C11.2517 6.06008 11.3069 6.09817 11.353 6.14593L12.853 7.64593C12.9467 7.73969 12.9994 7.86685 12.9994 7.99943C12.9994 8.13201 12.9467 8.25917 12.853 8.35293L11.353 9.85293C11.3069 9.90068 11.2517 9.93878 11.1907 9.96498C11.1297 9.99119 11.0641 10.005 10.9977 10.0056C10.9313 10.0061 10.8655 9.99348 10.804 9.96834C10.7426 9.9432 10.6867 9.90607 10.6398 9.85913C10.5929 9.81218 10.5557 9.75636 10.5306 9.69491C10.5054 9.63346 10.4928 9.56762 10.4934 9.50123C10.494 9.43484 10.5077 9.36923 10.5339 9.30823C10.5602 9.24723 10.5982 9.19205 10.646 9.14593L11.293 8.49993H10.5Z" fill="#00173C"></path><path d="M8.23208 3.05998C8.46423 2.82776 8.73986 2.64356 9.04322 2.51788C9.34658 2.3922 9.67172 2.32751 10.0001 2.32751C10.3284 2.32751 10.6536 2.3922 10.9569 2.51788C11.2603 2.64356 11.5359 2.82776 11.7681 3.05998L16.9391 8.23198C17.1713 8.46414 17.3555 8.73976 17.4812 9.04312C17.6069 9.34648 17.6715 9.67162 17.6715 9.99998C17.6715 10.3283 17.6069 10.6535 17.4812 10.9568C17.3555 11.2602 17.1713 11.5358 16.9391 11.768L11.7681 16.939C11.5359 17.1712 11.2603 17.3554 10.9569 17.4811C10.6536 17.6068 10.3284 17.6714 10.0001 17.6714C9.67172 17.6714 9.34658 17.6068 9.04322 17.4811C8.73986 17.3554 8.46423 17.1712 8.23208 16.939L3.06108 11.768C2.82886 11.5358 2.64466 11.2602 2.51898 10.9568C2.3933 10.6535 2.32861 10.3283 2.32861 9.99998C2.32861 9.67162 2.3933 9.34648 2.51898 9.04312C2.64466 8.73976 2.82886 8.46414 3.06108 8.23198L8.23208 3.05998ZM11.0611 3.76698C10.9218 3.62759 10.7564 3.51702 10.5743 3.44157C10.3923 3.36613 10.1971 3.3273 10.0001 3.3273C9.80302 3.3273 9.60788 3.36613 9.42583 3.44157C9.24378 3.51702 9.07838 3.62759 8.93908 3.76698L3.76808 8.93998C3.48687 9.22127 3.3289 9.60273 3.3289 10.0005C3.3289 10.3982 3.48687 10.7797 3.76808 11.061L8.93908 16.233C9.07838 16.3724 9.24378 16.4829 9.42583 16.5584C9.60788 16.6338 9.80302 16.6727 10.0001 16.6727C10.1971 16.6727 10.3923 16.6338 10.5743 16.5584C10.7564 16.4829 10.9218 16.3724 11.0611 16.233L16.2321 11.061C16.5133 10.7797 16.6713 10.3982 16.6713 10.0005C16.6713 9.60273 16.5133 9.22127 16.2321 8.93998L11.0611 3.76798V3.76698Z" fill="#00173C"></path></svg>