<svg class="neighborhood-svg" xmlns="http://www.w3.org/2000/svg" width="80" height="78" viewBox="0 0 80 78" fill="none"><path d="M79.9922 3.22607C79.9922 1.84569 78.8692 0.722661 77.4888 0.722661H67.7793L67.5936 0.722663C67.2889 0.722656 67.366 0.722656 66.6797 0.722656C65.9934 0.722656 66.2897 0.72266 65.6439 0.72266L65.2837 0.722661H53.3203H53.0318C52.6418 0.722661 52.7676 0.722661 52.0813 0.722661C51.395 0.722661 51.7157 0.722661 51.3258 0.722661H50.8247H38.8614H38.6649C38.3969 0.722661 38.3642 0.722661 37.6779 0.722661C36.9838 0.722661 37.0443 0.722661 36.6543 0.722661H36.3658H24.4024C23.9447 0.722661 24.0461 0.722661 23.3598 0.722661C22.6657 0.722661 23.0064 0.722661 22.2266 0.722661H21.9068H12.1973C10.8169 0.722661 9.6939 1.84569 9.6939 3.22607C9.6939 6.75893 9.6939 -9.55614 9.6861 37.7357C3.8526 41.6585 0 48.3187 0 55.8679C0 67.9092 9.79528 77.7045 21.8366 77.7045C33.0513 77.7045 42.3084 69.2038 43.5251 58.3167H77.5356C78.8926 58.3167 80 57.2171 80 55.8523C79.9844 55.6573 79.9922 8.65403 79.9922 3.22607ZM21.8912 3.22607H22.385C23.0064 3.22607 22.7466 3.22607 23.4329 3.22607C24.127 3.22607 24.1763 3.22607 24.3868 3.22607H36.3502C36.9224 3.22607 36.9916 3.22607 37.6779 3.22607C38.372 3.22607 38.3237 3.22607 38.7868 3.22607H38.8458H50.8091C51.7279 3.22607 51.5656 3.22607 52.2519 3.22607C52.9382 3.22607 52.6418 3.22607 53.3047 3.22607H65.2681C65.8998 3.22607 67.0774 3.22607 67.7637 3.22607C68.2394 3.22607 68.45 3.22607 67.7637 3.22607H77.4732V12.8264H12.1661V3.22607H21.8912ZM21.8288 75.1933C11.1679 75.1933 2.49561 66.521 2.49561 55.8601C2.49561 45.1992 11.1679 36.5269 21.8288 36.5269C32.4898 36.5269 41.162 45.1992 41.162 55.8601C41.162 66.521 32.4898 75.1933 21.8288 75.1933ZM43.6576 55.8055C43.6264 43.7954 33.8468 34.0235 21.8288 34.0235C18.3584 34.0235 15.0907 34.858 12.1739 36.3007V17.5836H77.4732L77.5278 55.7977H43.6576V55.8055Z" fill="#E62222"></path><rect x="59.271" y="46.4392" width="13.2579" height="2.33964" rx="1.16982" fill="#E62222"></rect><rect x="49.1323" y="46.4392" width="7.79879" height="2.33964" rx="1.16982" fill="#E62222"></rect><path d="M12.478 56.9675L20.6668 65.1563L34.3146 48.7788" stroke="#E62222" stroke-width="3" stroke-linecap="round" stroke-linejoin="round"></path></svg>