<svg class="neighborhood-svg" xmlns="http://www.w3.org/2000/svg" style="fill:red" width="80" height="81" viewBox="0 0 80 81"><path d="M79.5785 14.0599L64.6254 1.02685C64.3992 0.831861 64.1028 0.722656 63.8064 0.722656H16.209C15.9048 0.722656 15.6162 0.831861 15.39 1.02685L0.436814 14.0599C0.179405 14.2861 0 14.7306 0 15.0036V79.4747C0 80.1689 0.561602 80.7227 1.24803 80.7227H78.7517C79.4459 80.7227 79.9998 80.1611 79.9998 79.4747V15.0036C80.0076 14.7072 79.8203 14.2705 79.5785 14.0599ZM33.8688 3.21852L31.5444 13.7479H19.9687L26.9422 3.21852H33.8688ZM43.5802 3.21852L45.9047 13.7479H34.1106L36.4351 3.21852H43.5802ZM53.0653 3.21852L60.0388 13.7479H48.4632L46.1387 3.21852H53.0653ZM70.3274 70.9576L9.67233 23.5129L41.3415 48.2847L70.3274 70.9576ZM9.67233 23.5129L70.3274 70.9576L9.68014 70.9498L9.67233 23.5129ZM70.3274 70.9576L41.3415 48.2847L9.67233 23.5129H70.3352L70.3274 70.9576ZM71.0606 21.0093H8.94691L4.24336 16.2516H75.7642L71.0606 21.0093ZM2.49605 18.0377L7.17623 22.772V71.6908L2.49605 76.4329V18.0377ZM8.94691 73.4535H65.8578C65.8656 73.4535 65.8656 73.4535 65.8734 73.4535H65.8812H71.0606L75.7642 78.219H4.23555L8.94691 73.4535ZM72.8391 71.6908V22.772L77.5037 18.0455V76.4173L72.8391 71.6908ZM75.421 13.7479H63.0341L56.0607 3.21852H63.3305L75.421 13.7479ZM16.6692 3.21852H23.9391L16.9656 13.7479H4.58657L16.6692 3.21852Z"></path><g clip-path="url(#clip0)"><path d="M30.4204 29.581C29.1791 29.581 27.9887 30.074 27.111 30.9517C26.2333 31.8293 25.7402 33.0196 25.7402 34.2607V62.3391C25.7402 63.5802 26.2333 64.7706 27.111 65.6482C27.9887 66.5258 29.1791 67.0188 30.4204 67.0188H49.1411C50.3824 67.0188 51.5728 66.5258 52.4505 65.6482C53.3282 64.7706 53.8213 63.5802 53.8213 62.3391V34.2607C53.8213 33.0196 53.3282 31.8293 52.4505 30.9517C51.5728 30.074 50.3824 29.581 49.1411 29.581H30.4204ZM30.4204 31.9209H49.1411C49.7617 31.9209 50.3569 32.1674 50.7958 32.6062C51.2346 33.045 51.4812 33.6402 51.4812 34.2607V62.3391C51.4812 62.9597 51.2346 63.5548 50.7958 63.9936C50.3569 64.4324 49.7617 64.679 49.1411 64.679H30.4204C29.7998 64.679 29.2046 64.4324 28.7657 63.9936C28.3269 63.5548 28.0803 62.9597 28.0803 62.3391V34.2607C28.0803 33.6402 28.3269 33.045 28.7657 32.6062C29.2046 32.1674 29.7998 31.9209 30.4204 31.9209Z"></path><path d="M39.9756 60.3892C40.9448 60.3892 41.7305 59.6035 41.7305 58.6343C41.7305 57.6651 40.9448 56.8794 39.9756 56.8794C39.0064 56.8794 38.2207 57.6651 38.2207 58.6343C38.2207 59.6035 39.0064 60.3892 39.9756 60.3892Z"></path><path d="M39.9756 53.3696C40.9448 53.3696 41.7305 52.5839 41.7305 51.6147C41.7305 50.6455 40.9448 49.8598 39.9756 49.8598C39.0064 49.8598 38.2207 50.6455 38.2207 51.6147C38.2207 52.5839 39.0064 53.3696 39.9756 53.3696Z"></path><path d="M41.7305 44.5951C41.7305 44.9422 41.6276 45.2815 41.4347 45.5701C41.2419 45.8587 40.9678 46.0836 40.6472 46.2164C40.3265 46.3493 39.9737 46.384 39.6332 46.3163C39.2928 46.2486 38.9801 46.0815 38.7347 45.836C38.4893 45.5906 38.3221 45.2779 38.2544 44.9375C38.1867 44.5971 38.2215 44.2442 38.3543 43.9236C38.4871 43.6029 38.712 43.3288 39.0006 43.136C39.2892 42.9431 39.6285 42.8402 39.9756 42.8402C40.441 42.8402 40.8874 43.0251 41.2165 43.3542C41.5456 43.6833 41.7305 44.1297 41.7305 44.5951Z"></path><path d="M39.9756 39.3304C40.9448 39.3304 41.7305 38.5447 41.7305 37.5755C41.7305 36.6063 40.9448 35.8206 39.9756 35.8206C39.0064 35.8206 38.2207 36.6063 38.2207 37.5755C38.2207 38.5447 39.0064 39.3304 39.9756 39.3304Z"></path><path d="M46.9961 53.3696C47.9653 53.3696 48.751 52.5839 48.751 51.6147C48.751 50.6455 47.9653 49.8598 46.9961 49.8598C46.0269 49.8598 45.2412 50.6455 45.2412 51.6147C45.2412 52.5839 46.0269 53.3696 46.9961 53.3696Z"></path><path d="M46.9961 46.35C47.9653 46.35 48.751 45.5643 48.751 44.5951C48.751 43.6259 47.9653 42.8402 46.9961 42.8402C46.0269 42.8402 45.2412 43.6259 45.2412 44.5951C45.2412 45.5643 46.0269 46.35 46.9961 46.35Z"></path><path d="M46.9961 39.3304C47.9653 39.3304 48.751 38.5447 48.751 37.5755C48.751 36.6063 47.9653 35.8206 46.9961 35.8206C46.0269 35.8206 45.2412 36.6063 45.2412 37.5755C45.2412 38.5447 46.0269 39.3304 46.9961 39.3304Z"></path><path d="M32.9551 53.3696C33.9243 53.3696 34.71 52.5839 34.71 51.6147C34.71 50.6455 33.9243 49.8598 32.9551 49.8598C31.9859 49.8598 31.2002 50.6455 31.2002 51.6147C31.2002 52.5839 31.9859 53.3696 32.9551 53.3696Z"></path><path d="M32.9551 46.35C33.9243 46.35 34.71 45.5643 34.71 44.5951C34.71 43.6259 33.9243 42.8402 32.9551 42.8402C31.9859 42.8402 31.2002 43.6259 31.2002 44.5951C31.2002 45.5643 31.9859 46.35 32.9551 46.35Z"></path><path d="M32.9551 39.3304C33.9243 39.3304 34.71 38.5447 34.71 37.5755C34.71 36.6063 33.9243 35.8206 32.9551 35.8206C31.9859 35.8206 31.2002 36.6063 31.2002 37.5755C31.2002 38.5447 31.9859 39.3304 32.9551 39.3304Z"></path></g><defs><clipPath id="clip0"><rect width="37.4414" height="37.4378" fill="white" transform="translate(21.0605 29.581)"></rect></clipPath></defs></svg>