<svg class="neighborhood-svg" xmlns="http://www.w3.org/2000/svg" style="fill:red" width="80" height="81" viewBox="0 0 80 81"><path d="M79.9922 6.25146C79.9922 4.87121 78.8692 3.74829 77.4888 3.74829H67.7793V1.97034C67.7793 1.27632 67.2178 0.722656 66.5315 0.722656C65.8452 0.722656 65.2837 1.28411 65.2837 1.97034V3.74829H53.3203V1.97034C53.3203 1.27632 52.7588 0.722656 52.0725 0.722656C51.3862 0.722656 50.8247 1.28411 50.8247 1.97034V3.74829H38.8614V1.97034C38.8614 1.27632 38.2999 0.722656 37.6136 0.722656C36.9195 0.722656 36.3658 1.28411 36.3658 1.97034V3.74829H24.4024V1.97034C24.4024 1.27632 23.8409 0.722656 23.1546 0.722656C22.4605 0.722656 21.9068 1.28411 21.9068 1.97034V3.74829H12.1973C10.8169 3.74829 9.6939 4.87121 9.6939 6.25146C9.6939 9.78397 9.6939 -6.52951 9.6861 40.7578C3.8526 44.6802 0 51.3397 0 58.8882C0 70.9283 9.79528 80.7227 21.8366 80.7227C33.0513 80.7227 42.3084 72.2228 43.5251 61.3368H77.5356C78.8926 61.3368 80 60.2372 80 58.8726C79.9844 58.6776 79.9922 11.6789 79.9922 6.25146ZM21.8912 6.25146V11.9128C21.8912 12.6069 22.4527 13.1605 23.139 13.1605C23.8331 13.1605 24.3868 12.5991 24.3868 11.9128V6.25146H36.3502V11.9128C36.3502 12.6069 36.9117 13.1605 37.598 13.1605C38.2921 13.1605 38.8458 12.5991 38.8458 11.9128V6.25146H50.8091V11.9128C50.8091 12.6069 51.3706 13.1605 52.0569 13.1605C52.7432 13.1605 53.3047 12.5991 53.3047 11.9128V6.25146H65.2681V11.9128C65.2681 12.6069 65.8296 13.1605 66.5159 13.1605C67.2022 13.1605 67.7637 12.5991 67.7637 11.9128V6.25146H77.4732V15.8508H12.1661V6.25146H21.8912ZM21.8288 78.2117C11.1679 78.2117 2.49561 69.5403 2.49561 58.8804C2.49561 48.2205 11.1679 39.5491 21.8288 39.5491C32.4898 39.5491 41.162 48.2205 41.162 58.8804C41.162 69.5403 32.4898 78.2117 21.8288 78.2117ZM43.6576 58.8258C43.6264 46.8168 33.8468 37.0459 21.8288 37.0459C18.3584 37.0459 15.0907 37.8803 12.1739 39.3229V18.354H77.4888L77.5278 58.818H43.6576V58.8258Z"></path><path d="M21.8287 44.9922C22.5228 44.9922 23.0764 44.4307 23.0764 43.7445V42.5358C23.0764 41.8418 22.515 41.2881 21.8287 41.2881C21.1347 41.2881 20.5811 41.8495 20.5811 42.5358V43.7445C20.5811 44.4385 21.1347 44.9922 21.8287 44.9922Z"></path><path d="M21.8287 73.3691C21.1347 73.3691 20.5811 73.9306 20.5811 74.6168V75.8255C20.5811 76.5196 21.1425 77.0732 21.8287 77.0732C22.5228 77.0732 23.0764 76.5118 23.0764 75.8255V74.6168C23.0764 73.9306 22.515 73.3691 21.8287 73.3691Z"></path><path d="M32.7155 46.5284L31.8577 47.3862C31.3664 47.8696 31.3664 48.665 31.8577 49.1563C32.0995 49.398 32.4192 49.5228 32.7389 49.5228C33.0586 49.5228 33.3783 49.398 33.6201 49.1563L34.4778 48.2985C34.9691 47.815 34.9691 47.0196 34.4778 46.5284C33.9944 46.0371 33.2068 46.0371 32.7155 46.5284Z"></path><path d="M10.029 69.2127L9.17119 70.0705C8.67992 70.554 8.67992 71.3494 9.17119 71.8407C9.41293 72.0824 9.73265 72.2072 10.0524 72.2072C10.3721 72.2072 10.6918 72.0824 10.9335 71.8407L11.7913 70.9829C12.2826 70.4994 12.2826 69.704 11.7913 69.2127C11.3079 68.7292 10.5125 68.7292 10.029 69.2127Z"></path><path d="M6.38704 57.9368H5.17835C4.48432 57.9368 3.93066 58.4982 3.93066 59.1844C3.93066 59.8785 4.49212 60.4321 5.17835 60.4321H6.38704C7.08106 60.4321 7.63473 59.8707 7.63473 59.1844C7.63473 58.4904 7.08106 57.9368 6.38704 57.9368Z" fill="#E62222"></path><path d="M33.6279 69.2127C33.1366 68.7214 32.349 68.7214 31.8577 69.2127C31.3664 69.704 31.3664 70.4916 31.8577 70.9829L32.7155 71.8406C32.9572 72.0824 33.277 72.2071 33.5967 72.2071C33.9164 72.2071 34.2361 72.0824 34.4778 71.8406C34.9691 71.3494 34.9691 70.5618 34.4778 70.0705L33.6279 69.2127Z"></path><path d="M10.028 49.1485C10.2697 49.3902 10.5894 49.515 10.9092 49.515C11.2289 49.515 11.5486 49.3902 11.7903 49.1485C12.2816 48.6572 12.2816 47.8696 11.7903 47.3783L10.9326 46.5206C10.4413 46.0293 9.65368 46.0293 9.1624 46.5206C8.67113 47.0118 8.67113 47.7994 9.1624 48.2907L10.028 49.1485Z"></path><path d="M32.7153 59.6602C32.7153 58.9662 32.1538 58.4125 31.4675 58.4125H25.2675C24.7528 57.0089 23.4114 55.9951 21.8282 55.9951C19.8005 55.9951 18.155 57.6405 18.155 59.668C18.155 60.7285 18.6151 61.6799 19.3326 62.3505L15.5892 71.3027C15.324 71.9421 15.6204 72.6751 16.2599 72.9402C16.4159 73.0026 16.5796 73.0338 16.7434 73.0338C17.2347 73.0338 17.6949 72.7453 17.8976 72.2696L21.6333 63.3253C21.6956 63.3253 21.758 63.3409 21.8204 63.3409C23.4036 63.3409 24.745 62.3271 25.2597 60.9157H31.4519C32.1538 60.9079 32.7153 60.3542 32.7153 59.6602ZM21.8282 60.8377C21.1809 60.8377 20.6584 60.3152 20.6584 59.668C20.6584 59.0208 21.1809 58.4983 21.8282 58.4983C22.4677 58.4983 22.9902 59.0208 22.998 59.6602V59.668C22.998 59.6758 22.998 59.6758 22.998 59.6836C22.9902 60.3152 22.4677 60.8377 21.8282 60.8377Z"></path></svg>