<svg class="neighborhood-svg" xmlns="http://www.w3.org/2000/svg" style="fill:red" width="80" height="79" viewBox="0 0 80 79"><path d="M79.5785 13.636L64.6254 1.01718C64.3992 0.828391 64.1028 0.722656 63.8064 0.722656H16.209C15.9048 0.722656 15.6162 0.828391 15.39 1.01718L0.436814 13.636C0.179405 13.855 0 14.2854 0 14.5497V76.9718C0 77.6439 0.561602 78.1801 1.24803 78.1801H78.7517C79.4459 78.1801 79.9998 77.6363 79.9998 76.9718V14.5497C80.0076 14.2628 79.8203 13.8399 79.5785 13.636ZM33.8688 3.1392L31.5444 13.3339H19.9687L26.9422 3.1392H33.8688ZM43.5802 3.1392L45.9047 13.3339H34.1106L36.4351 3.1392H43.5802ZM53.0653 3.1392L60.0388 13.3339H48.4632L46.1387 3.1392H53.0653ZM70.3274 68.7254L9.67233 22.7886L41.3415 46.7731L70.3274 68.7254ZM9.67233 22.7886L70.3274 68.7254L9.68014 68.7178L9.67233 22.7886ZM70.3274 68.7254L41.3415 46.7731L9.67233 22.7886H70.3352L70.3274 68.7254ZM71.0606 20.3645H8.94691L4.24336 15.758H75.7642L71.0606 20.3645ZM2.49605 17.4874L7.17623 22.0712V69.4352L2.49605 74.0266V17.4874ZM8.94691 71.1419H65.8578C65.8656 71.1419 65.8656 71.1419 65.8734 71.1419H65.8812H71.0606L75.7642 75.756H4.23555L8.94691 71.1419ZM72.8391 69.4352V22.0712L77.5037 17.4949V74.0116L72.8391 69.4352ZM75.421 13.3339H63.0341L56.0607 3.1392H63.3305L75.421 13.3339ZM16.6692 3.1392H23.9391L16.9656 13.3339H4.58657L16.6692 3.1392Z"></path><g clip-path="url(#clip0)"><path d="M39.781 38.2803C40.4016 38.2803 40.9968 38.5268 41.4357 38.9656C41.8745 39.4044 42.1211 39.9996 42.1211 40.6201V42.96H37.4409V40.6201C37.4409 39.9996 37.6875 39.4044 38.1263 38.9656C38.5652 38.5268 39.1604 38.2803 39.781 38.2803ZM44.4612 43.1378V40.6201C44.4612 39.379 43.9681 38.1887 43.0904 37.3111C42.2127 36.4334 41.0223 35.9404 39.781 35.9404C38.5397 35.9404 37.3493 36.4334 36.4716 37.3111C35.5939 38.1887 35.1008 39.379 35.1008 40.6201V43.1378C33.8372 43.5262 32.7607 44.5347 32.7607 46.0018V51.6175C32.7607 53.5268 34.5883 54.6593 36.2709 54.6593H43.2911C44.9737 54.6593 46.8013 53.5268 46.8013 51.6175V46.0018C46.8013 44.5347 45.7248 43.5262 44.4612 43.1378ZM35.3465 45.5923C35.6134 45.3946 35.9388 45.2916 36.2709 45.2999H43.2911C43.6232 45.2922 43.9483 45.3951 44.2155 45.5923C44.4144 45.7515 44.4612 45.9035 44.4612 46.0018V51.6175C44.4612 51.7158 44.4144 51.8679 44.2155 52.027C43.9486 52.2247 43.6232 52.3277 43.2911 52.3195H36.2709C35.9388 52.3277 35.6134 52.2247 35.3465 52.027C35.1476 51.8679 35.1008 51.7158 35.1008 51.6175V46.0018C35.1008 45.9035 35.1476 45.7515 35.3465 45.5923Z"></path><path d="M30.4204 26.5809C29.1791 26.5809 27.9887 27.074 27.111 27.9516C26.2333 28.8292 25.7402 30.0195 25.7402 31.2607V59.339C25.7402 60.5802 26.2333 61.7705 27.111 62.6481C27.9887 63.5257 29.1791 64.0188 30.4204 64.0188H49.1411C50.3824 64.0188 51.5728 63.5257 52.4505 62.6481C53.3282 61.7705 53.8213 60.5802 53.8213 59.339V31.2607C53.8213 30.0195 53.3282 28.8292 52.4505 27.9516C51.5728 27.074 50.3824 26.5809 49.1411 26.5809H30.4204ZM30.4204 28.9208H49.1411C49.7617 28.9208 50.3569 29.1673 50.7958 29.6061C51.2346 30.0449 51.4812 30.6401 51.4812 31.2607V59.339C51.4812 59.9596 51.2346 60.5548 50.7958 60.9936C50.3569 61.4324 49.7617 61.6789 49.1411 61.6789H30.4204C29.7998 61.6789 29.2046 61.4324 28.7657 60.9936C28.3269 60.5548 28.0803 59.9596 28.0803 59.339V31.2607C28.0803 30.6401 28.3269 30.0449 28.7657 29.6061C29.2046 29.1673 29.7998 28.9208 30.4204 28.9208Z"></path></g><defs><clipPath id="clip0"><rect width="37.4414" height="37.4378" transform="translate(21.0605 26.5809)"></rect></clipPath></defs></svg>