<svg class="neighborhood-svg" xmlns="http://www.w3.org/2000/svg" style="fill:red" width="80" height="81" viewBox="0 0 80 81"><path d="M79.2005 15.467L40.4465 0.804548C40.1657 0.695359 39.8459 0.695359 39.5652 0.804548L0.811096 15.467C0.327548 15.6542 0 16.1144 0 16.6369V24.4906C0 25.1847 0.561521 25.7385 1.24785 25.7385H6.35629V79.4748C6.35629 80.1689 6.91786 80.7227 7.60419 80.7227C36.3987 80.7227 -15.6139 80.7227 72.3919 80.7227C73.086 80.7227 73.6397 80.1611 73.6397 79.4748V25.7385H78.7482C79.4423 25.7385 79.9961 25.1769 79.9961 24.4906V16.6369C80.0117 16.1222 79.6841 15.6542 79.2005 15.467ZM27.9366 59.6415H30.2842V63.3773H27.9366V59.6415ZM26.6887 65.8808H31.532C32.2262 65.8808 32.7799 65.3193 32.7799 64.633V59.6415H38.7541V78.2347H19.4589V59.6415H25.4331V64.633C25.4331 65.3193 25.9946 65.8808 26.6887 65.8808ZM49.7353 57.138H53.3229C54.017 57.138 57.9571 57.138 60.5528 57.138C53.8845 57.138 47.9259 57.138 41.2576 57.138H38.7619H40.0097H41.2576C42.5054 57.138 49.0412 57.138 49.7353 57.138ZM49.7353 59.6415H52.0828V63.3773H49.7353V59.6415ZM41.2576 78.2269V59.6337H47.2318V64.6252C47.2318 65.3193 47.7933 65.873 48.4796 65.873H53.3229C54.017 65.873 54.5708 65.3115 54.5708 64.6252V59.6337H60.5449V78.2269H41.2576ZM71.1518 78.2269H63.0563V58.3858V57.138C61.2235 57.138 60.9854 57.138 60.5528 57.138C53.2761 57.138 49.1971 57.138 41.2576 57.138C41.2576 57.138 40.8238 57.138 40.0097 57.138H38.7619C34.5035 57.138 25.2225 57.138 18.211 57.138C17.5169 57.138 16.9632 57.6995 16.9632 58.3858V78.2269H8.86765V25.7463H71.1518V78.2269ZM77.5081 23.2428C48.9086 23.2428 30.0736 23.2428 2.50355 23.2428V17.5026L40.0019 3.3159L77.5003 17.5026V23.2428H77.5081Z"></path><path d="M33.3101 14.4454C33.3101 18.1422 36.3127 21.1448 40.0095 21.1448C43.7063 21.1448 46.709 18.1422 46.709 14.4454C46.709 10.7486 43.7063 7.74585 40.0095 7.74585C36.3127 7.74585 33.3101 10.7563 33.3101 14.4454ZM44.2055 14.4454C44.2055 16.7617 42.3181 18.6413 40.0095 18.6413C37.6932 18.6413 35.8136 16.7539 35.8136 14.4454C35.8136 12.129 37.701 10.2494 40.0095 10.2494C42.3259 10.2494 44.2055 12.129 44.2055 14.4454Z"></path><path d="M34.9994 41.0619L35.2059 40.9122V40.6571V27.7398H45.9047V29.0796H44.0649H43.5649V29.5796V31.9193V32.4193H44.0649H45.9047V33.7591H44.0649H43.5649V34.2591V36.5988V37.0988H44.0649H45.9047V38.4386H44.0649H43.5649V38.9386V40.6571V40.9122L43.7714 41.0619C45.7178 42.4734 47.0745 44.6018 47.0745 47.1277C47.0745 51.3614 43.6191 54.8168 39.3854 54.8168C35.1517 54.8168 31.6963 51.3614 31.6963 47.1277C31.6963 44.6018 33.053 42.4734 34.9994 41.0619ZM37.0457 29.0796H36.5457V29.5796V41.4614L36.2164 41.6458L36.2164 41.6457L36.2098 41.6496C34.3142 42.7494 33.036 44.773 33.036 47.1277C33.036 50.6479 35.8652 53.4771 39.3854 53.4771C42.9056 53.4771 45.7348 50.6479 45.7348 47.1277C45.7348 44.7731 44.4567 42.7493 42.5608 41.6506L42.5608 41.6506L42.5557 41.6477L42.2252 41.4613V29.5796V29.0796H41.7252H37.0457ZM38.3836 44.3089L38.7155 44.1905V43.838V32.4193H40.0553V43.838V44.1905L40.3872 44.3089C41.554 44.7254 42.3923 45.8269 42.395 47.1236C42.3732 47.906 42.0474 48.6493 41.4867 49.1957C40.9245 49.7436 40.1705 50.0502 39.3854 50.0502C38.6004 50.0502 37.8464 49.7436 37.2841 49.1957C36.7234 48.6493 36.3977 47.906 36.3758 47.1236C36.3786 45.8269 37.2168 44.7254 38.3836 44.3089ZM49.2444 31.3344C49.2444 29.3527 50.8573 27.7398 52.839 27.7398C54.8207 27.7398 56.4335 29.3527 56.4335 31.3344C56.4335 33.3161 54.8207 34.929 52.839 34.929C50.8573 34.929 49.2444 33.3161 49.2444 31.3344ZM55.0938 31.3344C55.0938 30.0908 54.0826 29.0796 52.839 29.0796C51.5954 29.0796 50.5842 30.0908 50.5842 31.3344C50.5842 32.578 51.5954 33.5892 52.839 33.5892C54.0826 33.5892 55.0938 32.578 55.0938 31.3344Z" stroke="#E62222"></path></svg>